<svg xmlns="http://www.w3.org/2000/svg" xmlns:xlink="http://www.w3.org/1999/xlink" version="1.1" id="Layer_1" x="0px" y="0px" viewBox="0 0 471 241.504" enable-background="new 0 0 471 241.504" xml:space="preserve">
    <g>
        <path fill="#EDEDED" stroke="#BFBFBF" stroke-width="1.9364" d="M453.971 6.723C405.306-13.925 16.6 34.5 4.4 66.2 c-12.143 31.8 32.1 120.5 32.1 120.453l-22.374 50.809l62.298-45.396c0 0 319.4 30.2 340.4 18.5 C437.86 199 496.3 24.7 454 6.723z"></path>
        <path fill="#FFFFFF" d="M446.178 16.822C400.823-0.743 20.6 41.4 9.3 70.95c-8.972 30.8 33.9 115.3 33.9 115.3 l-17.088 36.528l49.494-37.12c0 0 315.2 27.9 334.7 17.062C429.877 191.9 481.8 30.7 446.2 16.822z"></path>
        <g>
            <g>
                <g>
                    <path fill="#BFBFBF" d="M426.163 150.285c0 7.886-6.396 14.277-14.276 14.277c-7.891 0-14.28-6.393-14.28-14.277 c0-7.883 6.391-14.275 14.28-14.275C419.768 136 426.2 142.4 426.2 150.285z"></path>
                    <polyline fill="#BFBFBF" points="402.3,133.1 409.6,133.7 409.7,133.3 409.9,132.9 410,132.5 410.2,132.1 410.5,131.7 410.8,131.4 411.1,131.1 411.4,130.8 411.8,130.5 412.2,130.4 412.6,130.2 413,130.1 413.4,130.1 413.9,130.1 414.3,130.1 414.7,130.1 415.1,130.2 415.6,130.4 415.9,130.5 416.3,130.8 416.6,131.1 416.9,131.4 417.2,131.7 417.5,132.1 417.7,132.5 417.9,132.9 418,133.3 418.2,133.7 418.2,134.2 418.2,134.3 425.1,134.8 433.9,57.4 424.7,56.4 424.5,56.7 424.4,57 424.1,57.5 423.7,58 423.4,58.3 423.2,58.5 422.8,59 422.5,59.2 422.3,59.4 422.1,59.5 422,59.5 422,59.5 422,59.6 421.7,59.7 421.5,59.9 421.2,60 420.9,60.2 420.6,60.3 420,60.4 419.4,60.5 418.8,60.6 418.1,60.5 417.5,60.4 416.9,60.3 416.3,60 415.7,59.7 415.2,59.4 414.7,59 414.2,58.5 414.1,58.4 414,58.3 413.8,58 413.5,57.7 413.3,57.3 413.1,57 413,56.6 412.8,56.2 412.7,55.9 412.6,55.4 412.5,55.1 404.7,54.1 402.3,133.1"></polyline>
                    <g>
                        <path fill="#BFBFBF" d="M333.724 91.504v72.429h-16.56l0.299-6.033c-7.399 5.046-14.118 7.303-16.289 7.3 c-2.454 0-4.498-0.586-6.127-1.752c-1.637-1.162-2.842-2.7-3.647-4.629c-0.782-1.925-1.271-3.938-1.442-6.025 c-0.191-2.095-0.281-6.247-0.281-12.458V91.505h16.255v49.314c0 10.3 2.5 11.6 5.8 11.6 c2.803 0 5.775-1.194 5.775-12.182V91.505L333.724 91.504L333.724 91.504z"></path>
                        <path fill="#BFBFBF" d="M357.771 75.649v20.56c8.037-5.046 14.495-5.91 16.526-5.91c2.628 0 4.9 0.9 6.8 2.7 c1.9 1.8 3.1 3.8 3.7 6.146c0.544 2.3 0.8 6.3 0.8 11.857v33.965c0 5.359-0.279 9.226-0.823 11.6 c-0.535 2.384-1.752 4.466-3.621 6.271c-1.873 1.797-4.085 2.709-6.628 2.709c-3.461 0-8.966-1.479-16.721-6.541v5.271H341.52 V75.646h16.252V75.649z M357.771 143.512c0 8.1 3.6 9.2 5.9 9.232c2.648 0 5.622-1.273 5.622-9.258v-33.701 c0-5.701-3.26-6.742-5.704-6.742c-2.459 0-5.822 1.335-5.822 6.742L357.771 143.512L357.771 143.512z"></path>
                        <polygon fill="#BFBFBF" points="282.4,164.3 282.4,75.8 265.3,75.8 265.3,113 265.3,113 247.3,113 247.2,113 247.2,75.8 230.2,75.8 230.1,164.3 247.2,164.3 247.2,128.1 256.3,128.1 265.3,128.1 265.3,164.3"></polygon>
                        <g>
                            <path fill="#BFBFBF" d="M167.826 91.527v72.427H151.29l0.284-6.027c-7.388 5.05-14.118 7.307-16.287 7.3 c-2.458 0-4.495-0.597-6.127-1.758c-1.632-1.158-2.849-2.701-3.635-4.622c-0.788-1.932-1.288-3.941-1.462-6.028 c-0.182-2.097-0.267-6.255-0.267-12.463V91.528h16.25v49.321c0 10.3 2.5 11.6 5.8 11.6 c2.799 0 5.769-1.207 5.769-12.185V91.529L167.826 91.527L167.826 91.527z"></path>
                        </g>
                        <g>
                            <path fill="#BFBFBF" d="M191.949 75.395v20.562c8.022-5.058 14.492-5.915 16.533-5.915c2.618 0 4.9 0.9 6.8 2.7 c1.896 1.8 3.1 3.8 3.7 6.148c0.533 2.3 0.8 6.3 0.8 11.861v33.966c0 5.363-0.283 9.229-0.816 11.6 c-0.545 2.362-1.75 4.444-3.639 6.254c-1.873 1.802-4.072 2.705-6.602 2.705c-3.465 0-8.99-1.477-16.734-6.553v5.275h-16.257 V75.393L191.949 75.395L191.949 75.395z M191.949 143.257c0 8.1 3.6 9.2 5.9 9.237c2.653 0 5.628-1.274 5.628-9.263 v-33.699c0-5.696-3.255-6.741-5.703-6.741c-2.471 0-5.833 1.326-5.833 6.741L191.949 143.257L191.949 143.257z"></path>
                        </g>
                        <g>
                            <path fill="#BFBFBF" d="M83.332 101.987H67.601v-6.521c0-6.323-3.682-7.062-5.675-7.062c-2.294 0-6.121 0.632-6.121 6.8 c0 2.931-0.024 5.3 0.9 6.632c2.438 3.7 8.1 6.8 11.1 8.876c8.768 6 12 7.6 14 11.5 c1.934 3.9 2.9 10.2 2.9 18.83c0 6.299-0.55 10.941-1.638 13.929c-1.092 2.976-3.186 5.477-6.282 7.5 c-3.097 2.008-9.171 3.034-13.932 3.034c-5.464 0-11.55-1.168-14.739-3.507c-3.185-2.334-5.264-5.302-6.234-8.902 c-0.987-3.609-1.478-8.737-1.478-15.369v-5.794h15.728v10.711c0 6.4 3.5 7.8 6 7.8 c2.166 0 6.332-1.054 6.332-7.131c0-5.188-0.405-8.632-1.54-10.18c-2.274-3.103-8.274-6.634-14.168-10.419 c-4.7-3.019-9.203-7.239-11.54-12.972c-1.202-2.953-1.322-6.887-1.322-11.565c0-6.759 0.637-11.726 1.906-14.844 c1.268-3.139 3.319-5.568 6.165-7.344c2.833-1.772 9.387-2.645 13.417-2.645c4.371 0 11.2 1 14.4 2.9 c3.093 1.9 5.1 4.4 6.2 7.305c1.003 2.9 1.5 7.9 1.5 14.97L83.332 101.987L83.332 101.987z"></path>
                        </g>
                        <g>
                            <g>
                                <g>
                                    <path fill="#BFBFBF" d="M111.646 81.396v11.459h5.356v11.465h-5.356v38.791c0 4.8 0.2 7.4 0.5 8 c0.374 0.5 1.9 0.8 4.7 0.813v11.684h-6.602c-3.725 0-6.395-0.222-7.988-0.644c-1.602-0.41-2.996-1.376-4.214-2.89 c-1.211-1.521-1.957-3.237-2.251-5.185c-0.301-1.946-0.441-6.512-0.441-13.746v-36.806h-4.662V92.854h4.662V81.395 L111.646 81.396L111.646 81.396z"></path>
                                </g>
                            </g>
                        </g>
                    </g>
                </g>
                <g>
                    <path fill="#FF7300" d="M416.422 45.359l-0.273 0.619l-0.164 0.298l-0.097 0.145l-0.075 0.165l-0.112 0.128l-0.087 0.1 l-0.207 0.29l-0.232 0.26l-0.075 0.056l-0.062 0.069l-0.11 0.149l-0.473 0.479l-0.255 0.201l-0.243 0.224l-0.517 0.3 l-0.281 0.154l-0.259 0.143l-0.294 0.11l-0.275 0.108l-0.59 0.167l-0.625 0.087l-0.335 0.021h-0.165l-0.147 0.019l-0.687-0.04 l-0.63-0.087l-0.602-0.167l-0.573-0.219l-0.57-0.297l-0.142-0.088c-0.903-0.512-1.672-1.243-2.186-2.122l-0.271-0.394 l-0.17-0.28l-0.133-0.274l-0.036-0.089l-0.18-0.771l-0.137-0.326l-9.442-0.645l-0.233 84.623l5.656 0.298l0.447 0 l2.63-77.14l8.454 0.938l0.016 0.332l0.069 0.348l0.097 0.313l0.148 0.333l0.315 0.622l0.203 0.294l0.236 0.314l0.364 0.4 l0.429 0.362l0.444 0.315l0.479 0.294l0.479 0.221l0.53 0.181l0.562 0.133l0.603 0.11l0.772 0.035l0.364-0.017l0.189-0.02h0.206 l0.475-0.11l0.485-0.133l0.221-0.09l0.111-0.052l0.124-0.04l0.223-0.109l0.112-0.058l0.125-0.033l0.188-0.129l0.201-0.112 l0.37-0.274l0.312-0.257l0.297-0.238l0.259-0.254l0.261-0.262l0.219-0.296l0.205-0.293l0.07-0.167l0.092-0.143l0.175-0.295 l2.668 0.371l1.442-8.338L416.422 45.359z"></path>
                    <circle fill="#004B91" cx="410.1" cy="148.5" r="14.3"></circle>
                    <polyline fill="#004B91" points="400.4,131.3 407.8,131.9 407.9,131.5 408,131.1 408.2,130.7 408.4,130.3 408.6,129.9 409,129.6 409.3,129.3 409.6,129 410,128.8 410.4,128.6 410.8,128.5 411.2,128.4 411.6,128.3 412.1,128.3 412.5,128.3 412.9,128.4 413.3,128.5 413.7,128.6 414.1,128.8 414.5,129 414.8,129.3 415.1,129.6 415.4,129.9 415.7,130.3 415.9,130.7 416.1,131.1 416.2,131.5 416.3,132 416.4,132.4 416.4,132.6 423.3,133.1 432.1,55.6 422.8,54.6 422.7,54.9 422.5,55.2 422.2,55.8 421.9,56.3 421.6,56.5 421.4,56.8 420.9,57.2 420.7,57.4 420.4,57.6 420.3,57.7 420.2,57.8 420.2,57.8 420.2,57.8 419.9,58 419.6,58.1 419.4,58.3 419.1,58.4 418.8,58.5 418.2,58.7 417.6,58.8 417,58.8 416.3,58.8 415.7,58.7 415.1,58.5 414.5,58.3 413.9,58 413.4,57.6 412.9,57.2 412.4,56.8 412.3,56.6 412.2,56.5 412,56.3 411.7,55.9 411.5,55.6 411.3,55.2 411.1,54.9 411,54.5 410.9,54.1 410.8,53.7 410.7,53.3 402.9,52.4 400.4,131.3"></polyline>
                    <path fill="#004B91" d="M431.284 47.537c1.5 0 2.7 1.2 2.7 2.749c0 1.553-1.198 2.757-2.709 2.8 c-1.505 0-2.728-1.204-2.728-2.757c0-1.53 1.223-2.749 2.728-2.749H431.284z M431.273 47.966c-1.211 0-2.201 1.037-2.201 2.3 c0 1.3 1 2.3 2.2 2.332c1.221 0 2.195-1.027 2.195-2.321c0-1.292-0.976-2.33-2.195-2.33L431.273 48 L431.273 47.966z M430.759 51.882h-0.488V48.82c0.254-0.041 0.501-0.077 0.867-0.077c0.464 0 0.8 0.1 1 0.2 c0.18 0.1 0.3 0.3 0.3 0.636c0 0.4-0.268 0.647-0.598 0.742v0.03c0.271 0 0.5 0.3 0.5 0.7 c0.072 0.5 0.1 0.7 0.2 0.751h-0.513c-0.076-0.093-0.147-0.379-0.207-0.779c-0.072-0.39-0.273-0.535-0.66-0.535h-0.343 L430.759 51.882L430.759 51.882z M430.759 50.188h0.354c0.4 0 0.744-0.146 0.744-0.525c0-0.271-0.196-0.538-0.744-0.538 c-0.16 0-0.271 0.016-0.354 0.027V50.188z"></path>
                </g>
            </g>
            <g>
                <path fill="#FF7300" d="M331.903 89.747v72.428h-16.559l0.298-6.034c-7.4 5.049-14.121 7.304-16.29 7.3 c-2.454 0-4.499-0.584-6.124-1.751c-1.639-1.161-2.846-2.701-3.652-4.631c-0.781-1.923-1.27-3.936-1.443-6.024 c-0.19-2.095-0.277-6.245-0.277-12.458V89.747h16.256v49.313c0 10.3 2.5 11.6 5.8 11.6 c2.801 0 5.773-1.194 5.773-12.185V89.746L331.903 89.747L331.903 89.747L331.903 89.747z"></path>
                <path fill="#FF7300" d="M355.95 73.891v20.562c8.039-5.046 14.496-5.909 16.527-5.909c2.627 0 4.9 0.9 6.8 2.7 c1.899 1.8 3.1 3.8 3.7 6.146c0.544 2.3 0.8 6.3 0.8 11.857v33.967c0 5.354-0.277 9.224-0.821 11.6 c-0.534 2.384-1.752 4.467-3.621 6.271c-1.872 1.799-4.089 2.711-6.626 2.711c-3.462 0-8.966-1.482-16.725-6.542v5.271h-16.255 V73.89L355.95 73.891L355.95 73.891z M355.95 141.756c0 8.1 3.6 9.2 5.9 9.232c2.652 0 5.627-1.273 5.627-9.26v-33.7 c0-5.701-3.262-6.741-5.703-6.741c-2.461 0-5.826 1.335-5.826 6.741L355.95 141.756L355.95 141.756z"></path>
                <polygon fill="#FF7300" points="280.6,162.6 280.6,74 263.5,74 263.5,111.3 263.5,111.3 245.4,111.3 245.4,111.3 245.4,74 228.4,74 228.3,162.6 245.4,162.6 245.4,126.4 254.5,126.4 263.5,126.4 263.5,162.6"></polygon>
                <g>
                    <path fill="#004B91" d="M166.006 89.769v72.43H149.47l0.286-6.03c-7.389 5.051-14.121 7.306-16.288 7.3 c-2.457 0-4.498-0.597-6.13-1.754c-1.63-1.16-2.848-2.705-3.632-4.626c-0.789-1.931-1.29-3.939-1.463-6.025 c-0.183-2.097-0.265-6.256-0.265-12.463V89.769h16.246v49.323c0 10.3 2.5 11.6 5.8 11.6 c2.796 0 5.769-1.21 5.769-12.188V89.769H166.006L166.006 89.769z"></path>
                </g>
                <g>
                    <path fill="#004B91" d="M190.127 73.637v20.56c8.024-5.057 14.494-5.913 16.535-5.913c2.616 0 4.9 0.9 6.8 2.7 c1.895 1.8 3.1 3.8 3.7 6.149c0.529 2.3 0.8 6.3 0.8 11.863v33.964c0 5.366-0.284 9.229-0.813 11.6 c-0.549 2.365-1.754 4.446-3.642 6.255c-1.873 1.804-4.071 2.705-6.601 2.705c-3.466 0-8.991-1.475-16.737-6.553v5.276h-16.256 V73.636L190.127 73.637L190.127 73.637z M190.127 141.502c0 8.1 3.6 9.2 5.9 9.236c2.652 0 5.631-1.276 5.631-9.265 v-33.699c0-5.694-3.26-6.74-5.705-6.74c-2.473 0-5.834 1.325-5.834 6.74V141.502L190.127 141.502z"></path>
                </g>
                <g>
                    <path fill="#004B91" d="M81.51 100.229H65.784v-6.521c0-6.323-3.688-7.063-5.678-7.063c-2.294 0-6.119 0.634-6.119 6.8 c0 2.93-0.024 5.3 0.9 6.63c2.439 3.7 8.1 6.8 11.1 8.878c8.767 5.9 12 7.6 14 11.5 c1.934 3.9 2.9 10.2 2.9 18.831c0 6.297-0.55 10.939-1.635 13.929c-1.093 2.974-3.184 5.478-6.281 7.5 c-3.096 2.01-9.174 3.037-13.932 3.037c-5.464 0-11.549-1.17-14.737-3.507c-3.187-2.336-5.267-5.304-6.237-8.903 c-0.987-3.609-1.476-8.741-1.476-15.368v-5.796h15.724v10.713c0 6.4 3.5 7.8 6 7.771c2.165 0 6.331-1.054 6.331-7.129 c0-5.188-0.405-8.633-1.538-10.182c-2.275-3.1-8.277-6.631-14.17-10.418c-4.699-3.018-9.203-7.239-11.54-12.97 C38.12 105 38 101.1 38 96.388c0-6.76 0.638-11.726 1.909-14.842c1.268-3.139 3.318-5.569 6.166-7.345 c2.832-1.772 9.386-2.646 13.415-2.646c4.372 0 11.2 1 14.4 2.909c3.091 1.9 5.1 4.4 6.2 7.3 c1.003 2.9 1.5 7.9 1.5 14.97v3.491L81.51 100.229L81.51 100.229z"></path>
                </g>
                <g>
                    <g>
                        <g>
                            <path fill="#004B91" d="M109.824 79.638v11.46h5.359v11.467h-5.359v38.789c0 4.8 0.2 7.4 0.5 8 c0.376 0.5 1.9 0.8 4.7 0.813v11.684h-6.604c-3.727 0-6.394-0.222-7.989-0.643c-1.6-0.409-2.996-1.376-4.211-2.891 c-1.213-1.521-1.958-3.238-2.252-5.188c-0.303-1.943-0.44-6.511-0.44-13.743v-36.807h-4.663V91.097h4.663v-11.46 L109.824 79.638L109.824 79.638z"></path>
                        </g>
                    </g>
                </g>
            </g>
        </g>
    </g>
</svg>
